<?xml version="1.0" encoding="utf-8"?>
<!-- Generator: Adobe Illustrator 24.0.1, SVG Export Plug-In . SVG Version: 6.00 Build 0)  -->
<svg version="1.1" id="Layer_1" xmlns="http://www.w3.org/2000/svg" xmlns:xlink="http://www.w3.org/1999/xlink" x="0px" y="0px"
	 viewBox="67 100 710.00 400.00" style="enable-background:new 0 0 841.89 595.28;" xml:space="preserve">
<style type="text/css">
	.st0{fill:#12100B;}
	.st1{fill:#0E4D94;}
	.st2{fill:#676463;}
	.st3{fill-rule:evenodd;clip-rule:evenodd;fill:#676463;}
	.st4{fill:#0473BA;}
	.st5{fill:#1D85C7;}
	.st6{fill:#7D7978;}
	.st7{fill:#C8C5C4;}
	.st8{fill:#A7A4A2;}
	.st9{fill:#FFFFFF;}
	.st10{fill-rule:evenodd;clip-rule:evenodd;fill:#FFFFFF;}
	.st11{fill:#FFFFFF;stroke:#000000;stroke-width:0.25;stroke-miterlimit:10;}
</style>
<g id="XMLID_8_">
	<g id="XMLID_243_">
		<path id="XMLID_268_" class="st1" d="M138.67,320.07c13.2,0,24.36,3.04,33.46,9.1c9.1,6.07,15.93,14.19,20.48,24.36
			c4.55,10.17,6.83,21.59,6.83,34.26v12.58h-83.25c3.92,15.17,15.35,22.75,34.26,22.75c12.31,0,24.54-3.39,36.67-10.17l11.78,29.18
			c-6.07,4.46-13.52,8.03-22.35,10.71c-8.83,2.68-18.52,4.02-29.04,4.02c-23.74,0-42.43-5.98-56.08-17.93
			c-13.65-11.95-20.48-28.55-20.48-49.79c0-13.92,2.85-26.1,8.57-36.54c5.71-10.44,13.69-18.47,23.96-24.09
			C113.73,322.88,125.46,320.07,138.67,320.07z M137.6,354.6c-5.89,0-10.84,2.01-14.86,6.02c-4.02,4.02-6.38,9.33-7.09,15.93h43.9
			c-1.07-6.6-3.44-11.91-7.09-15.93C148.79,356.61,143.84,354.6,137.6,354.6z"/>
		<path id="XMLID_266_" class="st1" d="M263.49,352.61l20.64-29.48l44.78,0.01l-42.98,61.63l48.48,69.39h-44.83l-26.02-37.21
			l-26.1,37.21l-44.91,0.13l48.48-69.52l-42.97-61.63l44.97-0.01L263.49,352.61z"/>
		<path id="XMLID_264_" class="st1" d="M513.7,320.07c6.78,0,14.36,1.07,22.75,3.21c8.39,2.14,10.12,3.41,10.12,3.41l0.05,35.94
			c-6.07-2.85-11.33-4.86-15.79-6.02c-4.46-1.16-9.28-1.74-14.45-1.74c-8.39,0-15.39,3.21-21.01,9.64
			c-5.62,6.42-8.43,14.63-8.43,24.63c0,10,2.81,18.03,8.43,24.09c5.62,6.07,12.62,9.1,21.01,9.1c4.99,0,9.81-0.62,14.45-1.87
			c4.64-1.25,9.9-3.3,15.79-6.16l-0.05,36.45c0,0-1.42,1.21-9.72,3.17s-16.02,2.94-23.15,2.94c-13.92,0-26.19-2.68-36.81-8.03
			c-10.62-5.35-18.83-13.16-24.63-23.42c-5.8-10.26-8.7-22.35-8.7-36.27c0-13.92,2.9-26.1,8.7-36.54
			c5.8-10.44,14.01-18.47,24.63-24.09C487.5,322.88,499.78,320.07,513.7,320.07z"/>
		<path id="XMLID_262_" class="st1" d="M614.71,327.03h36.43l-0.03,32.66h-36.4v43.36c0,6.07,1.51,10.98,4.55,14.72
			c3.03,3.75,7.23,5.62,12.58,5.62c5.53,0,11.06-1.43,16.6-4.28l12.05,29.18c-3.04,2.5-7.67,4.73-13.92,6.69
			c-6.25,1.96-12.05,2.94-17.4,2.94c-16.42,0-29.89-4.28-40.42-12.85c-10.53-8.57-15.79-20.7-15.79-36.4v-48.98h-18.74v-32.66h18.74
			v-15.41l41.76-23.94V327.03z"/>
		<path id="XMLID_259_" class="st1" d="M709.91,355.94c-5.18,0-11.07,0.8-17.67,2.41c-6.6,1.61-12.4,3.57-17.4,5.89l-0.06-36.87
			c0,0,2.83-1.27,13.18-3.68c10.35-2.41,19.63-3.61,27.84-3.61c10.88,0,20.52,2.14,28.91,6.42c8.39,4.28,14.86,10.31,19.41,18.07
			c4.55,7.76,6.83,16.64,6.83,26.63v82.71l-33.27,0.14l0.07-13.79c-9.64,11.07-20.25,16.6-31.85,16.6c-15.7,0-27.57-3.88-35.6-11.64
			c-8.03-7.76-12.05-18.34-12.05-31.72c0-13.2,4.46-23.11,13.38-29.71c8.92-6.6,21.15-9.9,36.67-9.9h20.34
			c-0.36-5.71-2.19-10.13-5.49-13.25C719.86,357.5,715.44,355.94,709.91,355.94z M708.58,399.03c-4.46,0-8.08,1.34-10.84,4.02
			c-2.77,2.68-4.15,6.07-4.15,10.17c0,3.21,1.16,5.98,3.48,8.3c2.32,2.32,5.35,3.48,9.1,3.48c7.85,0,15.43-3.39,22.75-10.17v-15.79
			H708.58z"/>
		<path id="XMLID_256_" class="st1" d="M376.64,355.94c-5.18,0-11.07,0.8-17.67,2.41c-6.6,1.61-12.4,3.57-17.4,5.89l-0.06-36.87
			c0,0,2.83-1.27,13.18-3.68c10.35-2.41,19.63-3.61,27.84-3.61c10.88,0,20.52,2.14,28.91,6.42c8.39,4.28,14.86,10.31,19.41,18.07
			c4.55,7.76,6.83,16.64,6.83,26.63v82.71l-33.27,0.14l0.07-13.79c-9.64,11.07-20.26,16.6-31.85,16.6c-15.7,0-27.57-3.88-35.6-11.64
			c-8.03-7.76-12.05-18.34-12.05-31.72c0-13.2,4.46-23.11,13.38-29.71c8.92-6.6,21.15-9.9,36.67-9.9h20.34
			c-0.36-5.71-2.19-10.13-5.49-13.25C386.58,357.5,382.17,355.94,376.64,355.94z M375.3,399.03c-4.46,0-8.08,1.34-10.84,4.02
			c-2.77,2.68-4.15,6.07-4.15,10.17c0,3.21,1.16,5.98,3.48,8.3c2.32,2.32,5.35,3.48,9.1,3.48c7.85,0,15.43-3.39,22.75-10.17v-15.79
			H375.3z"/>
		<g id="XMLID_244_">
			<path id="XMLID_254_" class="st2" d="M679.91,464.63l-7.64,25.42h-4.31l-5.51-18.69l-5.49,18.69h-4.31l-7.67-25.42h5.01
				l4.67,19.38l5.73-19.38h4.12l5.75,19.38l4.67-19.38H679.91z"/>
			<path id="XMLID_251_" class="st2" d="M693.81,464.05c3.62,0,6.52,1.16,8.68,3.47c2.16,2.32,3.25,5.59,3.25,9.82
				c0,4.22-1.08,7.49-3.25,9.81c-2.16,2.32-5.06,3.49-8.68,3.49c-3.61,0-6.5-1.16-8.66-3.49c-2.16-2.32-3.25-5.59-3.25-9.81
				c0-4.23,1.08-7.51,3.25-9.82C687.31,465.21,690.2,464.05,693.81,464.05z M693.81,487.1c2.16,0,3.9-0.82,5.25-2.45
				c1.34-1.64,2.01-4.07,2.01-7.29c0-3.24-0.67-5.68-2.01-7.32c-1.34-1.64-3.09-2.46-5.25-2.46c-2.16,0-3.9,0.82-5.25,2.46
				c-1.34,1.64-2.01,4.08-2.01,7.32c0,3.23,0.67,5.66,2.01,7.29C689.9,486.28,691.65,487.1,693.81,487.1z"/>
			<path id="XMLID_249_" class="st2" d="M723.99,468.75c-0.64-0.19-1.56-0.29-2.76-0.29c-2.3,0-4.27,1.21-5.92,3.62v17.97h-4.53
				v-25.42h4.53v3.54c1.9-2.75,4.1-4.12,6.61-4.12c0.64,0,1.33,0.06,2.06,0.19V468.75z"/>
			<path id="XMLID_247_" class="st2" d="M748.14,490.04h-5.39l-8.27-12.91l-2.83,2.8v10.11h-4.53v-35.12h4.53v19.91l9.8-10.2h5.7
				l-9.63,9.46L748.14,490.04z"/>
			<path id="XMLID_245_" class="st2" d="M760.74,490.64c-6.95,0-10.58-2.73-10.9-8.19h4.53c0.03,3.1,2.14,4.65,6.32,4.65
				c1.87,0,3.29-0.39,4.28-1.16c0.98-0.77,1.47-1.75,1.47-2.91c0-1.15-0.48-1.96-1.44-2.43c-0.96-0.47-2.94-1.08-5.93-1.83
				c-2.99-0.75-5.18-1.59-6.56-2.52c-1.38-0.93-2.07-2.55-2.07-4.89c0-2.11,0.86-3.85,2.57-5.24c1.72-1.38,4.01-2.07,6.89-2.07
				c6.66,0,10.06,2.37,10.21,7.11h-4.5c-0.16-2.4-1.96-3.59-5.39-3.59c-1.52,0-2.78,0.29-3.77,0.86c-1,0.58-1.5,1.41-1.5,2.52
				c0,0.99,0.38,1.71,1.15,2.14c0.77,0.44,2.69,1.03,5.76,1.77c3.07,0.74,5.36,1.61,6.85,2.6s2.24,2.7,2.24,5.13
				c0,2.32-0.92,4.24-2.77,5.76C766.33,489.88,763.85,490.64,760.74,490.64z"/>
		</g>
	</g>
	<g id="XMLID_220_">
		<g id="XMLID_237_">
			<g id="XMLID_241_">
				<circle id="XMLID_210_" class="st3" cx="488.58" cy="244.35" r="12.89"/>
			</g>
			<path id="XMLID_17_" class="st2" d="M498.26,229.52c0.82,0.54,1.6,1.15,2.35,1.83c7.18,6.64,7.61,17.84,0.97,25.02
				c-5.96,6.43-15.58,7.45-22.67,2.8c-0.82-0.54-1.6-1.15-2.35-1.83c-7.18-6.64-7.61-17.84-0.97-25.02
				C481.55,225.89,491.17,224.87,498.26,229.52 M500.71,225.79L500.71,225.79c-4.33-2.84-9.56-4.06-14.73-3.45
				c-5.23,0.62-10.08,3.09-13.66,6.95c-8.3,8.97-7.76,23.02,1.21,31.32c0.91,0.84,1.9,1.62,2.93,2.29
				c4.33,2.84,9.56,4.06,14.73,3.45c5.23-0.62,10.08-3.09,13.66-6.95c4.02-4.34,6.11-9.99,5.88-15.91
				c-0.23-5.92-2.75-11.39-7.09-15.41C502.72,227.24,501.74,226.47,500.71,225.79L500.71,225.79z"/>
		</g>
		<path id="XMLID_234_" class="st1" d="M447.22,123.51c0.13,1.08,0.23,2.17,0.23,3.28c0,14.56-11.8,26.36-26.36,26.36
			c-14.56,0-26.36-11.8-26.36-26.36c0-1.11,0.09-2.21,0.23-3.28c-33.59,10.99-57.86,42.56-57.86,79.82c0,6.43,0.75,12.68,2.12,18.7
			c4.08-2.59,8.91-4.11,14.1-4.11c14.56,0,26.36,11.8,26.36,26.36c0,9.76-5.32,18.27-13.21,22.82
			c14.69,12.6,33.76,20.22,54.63,20.22c20.79,0,39.8-7.57,54.47-20.09c-7.96-4.54-13.33-13.08-13.33-22.9
			c0-14.56,11.8-26.36,26.36-26.36c5.29,0,10.2,1.57,14.33,4.25c1.4-6.08,2.16-12.4,2.16-18.91
			C505.07,166.08,480.8,134.5,447.22,123.51z M421.09,242.08c-21.36,0-38.74-17.38-38.74-38.74c0-21.36,17.38-38.74,38.74-38.74
			c21.36,0,38.74,17.38,38.74,38.74C459.82,224.7,442.45,242.08,421.09,242.08z"/>
		<g id="XMLID_228_">
			<g id="XMLID_16_">
				<circle id="XMLID_212_" class="st3" cx="353.31" cy="244.28" r="12.89"/>
			</g>
			<path id="XMLID_229_" class="st2" d="M362.99,229.45c0.82,0.54,1.6,1.15,2.35,1.83c7.18,6.64,7.61,17.84,0.97,25.02
				c-5.96,6.43-15.58,7.45-22.67,2.8c-0.82-0.54-1.6-1.15-2.35-1.83c-7.18-6.64-7.61-17.84-0.97-25.02
				C346.27,225.82,355.89,224.81,362.99,229.45 M365.43,225.72L365.43,225.72c-4.33-2.84-9.56-4.06-14.73-3.45
				c-5.23,0.62-10.08,3.09-13.66,6.95c-4.02,4.34-6.11,9.99-5.88,15.91c0.23,5.92,2.75,11.39,7.09,15.41
				c0.91,0.84,1.9,1.62,2.93,2.29c4.33,2.84,9.56,4.06,14.73,3.45c5.23-0.62,10.08-3.09,13.66-6.95c4.02-4.34,6.11-9.99,5.88-15.91
				c-0.23-5.92-2.75-11.39-7.09-15.41C367.45,227.17,366.46,226.4,365.43,225.72L365.43,225.72z"/>
		</g>
		<path id="XMLID_13_" class="st4" d="M447.22,123.53c0.13,1.07,0.22,2.16,0.22,3.27c0,14.56-11.8,26.36-26.36,26.36
			c-14.56,0-26.36-11.8-26.36-26.36c0-1.12,0.09-2.21,0.23-3.29c-20.98,6.86-38.32,21.75-48.39,41.05l39.69,21.84
			c6.3-12.88,19.54-21.78,34.82-21.78c15.05,0,28.12,8.64,34.53,21.21l39.34-22.48C484.79,144.65,467.74,130.24,447.22,123.53z"/>
		<g id="XMLID_12_">
			<circle id="XMLID_214_" class="st3" cx="421.09" cy="126.8" r="12.89"/>
		</g>
		<path id="XMLID_10_" class="st2" d="M430.77,111.97c0.82,0.54,1.6,1.15,2.35,1.83c7.18,6.64,7.61,17.84,0.97,25.02
			c-5.95,6.43-15.58,7.45-22.67,2.8c-0.82-0.54-1.6-1.15-2.35-1.83c-7.18-6.64-7.61-17.84-0.97-25.02
			C414.05,108.34,423.67,107.33,430.77,111.97 M433.21,108.24L433.21,108.24c-4.33-2.84-9.56-4.06-14.73-3.45
			c-5.23,0.62-10.08,3.09-13.66,6.95c-4.02,4.34-6.11,9.99-5.88,15.91c0.23,5.92,2.75,11.39,7.09,15.41
			c0.91,0.84,1.9,1.62,2.93,2.29c4.33,2.84,9.56,4.06,14.73,3.45c5.23-0.62,10.08-3.09,13.66-6.95c4.02-4.34,6.11-9.99,5.88-15.91
			c-0.23-5.92-2.75-11.39-7.09-15.41C435.23,109.69,434.24,108.92,433.21,108.24L433.21,108.24z"/>
		<path id="XMLID_9_" class="st5" d="M382.31,203.35c0-6.08,1.41-11.84,3.92-16.96l-39.67-21.83c-6.06,11.61-9.5,24.79-9.5,38.79
			c0,6.43,0.75,12.69,2.12,18.71c4.09-2.6,8.92-4.13,14.13-4.13c14.56,0,26.36,11.8,26.36,26.36c0,9.77-5.33,18.29-13.24,22.84
			c14.69,12.59,33.76,20.22,54.63,20.22v-45.25C399.69,242.09,382.31,224.71,382.31,203.35z"/>
	</g>
</g>
</svg>
